<?xml version="1.0" standalone="no"?>
<!DOCTYPE svg PUBLIC "-//W3C//DTD SVG 20010904//EN"
 "http://www.w3.org/TR/2001/REC-SVG-20010904/DTD/svg10.dtd">
<svg version="1.0" xmlns="http://www.w3.org/2000/svg"
 width="1000.000000pt" height="1000.000000pt" viewBox="0 0 1000.000000 1000.000000"
 preserveAspectRatio="xMidYMid meet">
<metadata>
Created by potrace 1.11, written by Peter Selinger 2001-2013
</metadata>
<g transform="translate(0.000000,1000.000000) scale(0.100000,-0.100000)"
fill="#000000" stroke="none">
<path d="M7427 9147 c-15 -5 -30 -20 -36 -38 -11 -32 -9 -34 18 -19 24 12 61
-14 61 -44 0 -13 -12 -36 -27 -52 -15 -16 -28 -31 -28 -34 -3 -22 -21 -57 -33
-66 -15 -11 -200 -13 -218 -2 -6 4 -28 -2 -50 -13 -122 -65 -150 -89 -101 -89
13 0 28 -5 35 -12 7 -7 12 -9 12 -4 0 4 19 -6 43 -23 45 -33 87 -43 181 -45
50 -1 62 -5 77 -26 31 -41 31 -110 1 -159 -1 -3 -26 -6 -55 -8 -110 -6 -179
-12 -181 -15 -8 -13 -60 -162 -85 -246 -25 -86 -61 -167 -61 -139 0 4 -9 3
-19 -3 -14 -7 -18 -17 -15 -34 3 -19 -1 -26 -18 -32 -13 -5 -27 -7 -31 -6 -14
4 -38 -26 -26 -33 6 -4 8 -13 5 -21 -3 -8 -1 -14 5 -14 6 0 6 -8 -1 -21 -9
-16 -14 -18 -26 -8 -11 9 -18 8 -31 -2 -15 -12 -16 -12 -8 1 8 13 7 13 -10 0
-36 -28 -53 -48 -47 -54 3 -3 0 -6 -6 -6 -6 0 -16 -18 -22 -40 -7 -27 -16 -40
-28 -40 -21 0 -40 -28 -36 -53 1 -11 -6 -19 -24 -23 -45 -11 -49 -20 -46 -95
2 -40 0 -68 -5 -64 -5 3 -12 -1 -14 -7 -4 -10 -6 -10 -6 0 -1 7 -5 11 -9 8 -5
-3 -9 1 -9 9 0 8 4 12 8 10 12 -8 4 24 -11 38 -10 9 -11 9 -6 0 4 -7 3 -13 -3
-13 -5 0 -8 -9 -6 -20 2 -11 -1 -20 -7 -20 -5 0 -7 -8 -4 -17 6 -17 5 -17 -7
-2 -18 24 -48 0 -49 -40 -1 -17 -8 -37 -16 -44 -13 -9 -14 -9 -8 0 5 9 0 12
-18 11 -20 -2 -26 -8 -26 -25 0 -12 -5 -25 -10 -28 -6 -4 -7 -12 -3 -18 4 -7
8 -21 8 -32 1 -11 7 -33 14 -50 14 -34 4 -61 -23 -59 -9 1 -16 -3 -17 -10 -7
-102 -7 -103 -71 -214 -54 -92 -81 -125 -94 -114 -4 4 -4 1 0 -6 14 -23 -37
-56 -90 -58 -27 -1 -83 -5 -124 -8 -76 -6 -195 -13 -395 -21 -101 -5 -188 -9
-350 -19 -33 -2 -89 -7 -125 -11 -36 -4 -117 -9 -180 -11 -63 -2 -176 -6 -250
-9 -260 -12 -251 -13 -300 39 -23 24 -56 64 -73 88 -17 23 -48 62 -68 86 -38
44 -43 68 -21 108 12 23 9 32 -55 123 -24 33 -43 64 -43 67 0 3 -11 15 -25 26
-14 11 -33 34 -41 50 -20 38 -29 51 -73 95 -19 19 -36 44 -38 55 -4 26 -21 48
-37 48 -6 0 -22 16 -35 35 -13 19 -27 35 -32 35 -5 0 -16 17 -24 38 -9 20 -21
42 -28 47 -20 16 -74 98 -82 125 -4 13 -14 30 -21 38 -8 7 -14 20 -14 28 0 8
-5 14 -11 14 -8 0 -8 4 -2 13 16 19 -10 69 -58 110 -23 20 -45 37 -50 37 -4 0
-22 20 -40 45 -17 24 -36 42 -40 39 -5 -3 -9 -1 -9 4 0 5 -29 29 -65 52 -36
23 -65 47 -65 52 0 5 -4 7 -9 4 -4 -3 -24 10 -43 28 -25 25 -48 36 -84 42 -62
10 -234 12 -254 3 -8 -4 -35 -8 -60 -10 -43 -3 -98 -33 -127 -69 -15 -19 -48
-121 -45 -137 2 -7 -1 -13 -6 -13 -4 0 -8 -10 -8 -22 -1 -13 -4 -48 -8 -78 -9
-65 -15 -157 -21 -300 -2 -58 -7 -148 -10 -200 -3 -52 -8 -140 -10 -195 -2
-55 -7 -140 -10 -190 -3 -49 -7 -155 -9 -235 -6 -217 -9 -227 -64 -259 -7 -4
-14 -17 -17 -29 -2 -12 -6 -26 -10 -32 -7 -12 -94 -70 -104 -70 -15 0 -101
-82 -115 -109 -18 -34 -51 -71 -63 -71 -18 0 -71 -66 -84 -105 -41 -120 -53
-105 -55 70 -1 202 -27 282 -90 286 -46 4 -72 -10 -83 -43 -6 -16 -9 -33 -7
-37 2 -3 7 -33 10 -66 8 -74 12 -101 21 -140 4 -16 8 -101 10 -188 2 -121 6
-162 17 -175 24 -27 27 -46 11 -67 -7 -11 -16 -19 -19 -17 -14 9 -35 -19 -38
-50 -6 -62 -27 -75 -61 -38 -10 11 -24 20 -30 20 -19 0 -28 29 -30 102 -2 73
-17 106 -62 135 -30 20 -115 22 -121 4 -2 -6 -10 -11 -17 -11 -11 0 -27 -22
-29 -42 -1 -3 -4 -9 -8 -13 -4 -4 -3 -18 2 -31 5 -13 7 -24 4 -24 -4 0 -1 -7
6 -15 7 -8 10 -15 7 -15 -3 0 0 -12 8 -26 13 -25 11 -52 -4 -56 -7 -1 -72 -6
-156 -12 -33 -2 -101 -7 -150 -11 -83 -6 -95 -5 -145 18 -31 13 -64 37 -75 53
-11 15 -37 46 -57 67 l-38 39 -77 -7 c-107 -8 -116 -10 -132 -20 -10 -5 -12
-4 -7 3 4 7 2 12 -3 12 -6 0 -11 -7 -11 -16 0 -9 -5 -12 -12 -8 -7 4 -10 4 -6
0 3 -4 0 -27 -8 -49 -16 -45 -31 -105 -40 -165 -3 -20 -10 -44 -15 -53 -8 -15
-11 -55 -8 -114 1 -39 2 -44 10 -39 4 2 10 0 14 -6 3 -5 1 -10 -5 -10 -7 0 -5
-7 4 -16 9 -8 14 -20 11 -25 -4 -5 -1 -9 4 -9 13 0 10 -22 -4 -33 -6 -4 -2 -7
8 -5 14 2 29 -18 63 -81 24 -47 50 -86 57 -87 30 -5 42 -10 49 -19 5 -7 8 -6
8 0 0 11 32 17 141 24 29 2 65 48 84 108 11 32 28 69 38 82 22 30 80 71 110
77 33 8 51 12 57 14 3 2 37 4 75 6 39 1 116 5 172 9 100 6 102 5 118 -19 9
-13 18 -40 22 -59 7 -47 -4 -54 -104 -62 -104 -8 -116 -24 -89 -132 18 -71 15
-81 -29 -89 -15 -3 -36 -9 -46 -14 -22 -12 -43 -108 -35 -159 3 -20 7 -42 8
-48 6 -48 90 -59 145 -20 l34 25 50 -19 c27 -11 60 -19 73 -19 18 0 27 -8 35
-31 10 -29 13 -30 55 -26 31 3 49 1 57 -9 9 -11 8 -14 -1 -14 -8 0 -10 -3 -7
-6 14 -15 -47 -47 -93 -50 -45 -2 -89 -17 -100 -35 -6 -9 -77 -21 -150 -25
-30 -2 -89 -5 -130 -9 -41 -3 -113 -8 -160 -11 -116 -7 -215 -14 -275 -19 -27
-2 -81 -6 -119 -9 -91 -7 -105 -12 -113 -44 -12 -49 -7 -120 11 -147 22 -33
47 -42 105 -39 25 2 96 6 156 9 61 4 139 8 175 11 36 2 99 6 140 8 41 3 94 7
117 10 63 7 74 -9 67 -92 -3 -37 -7 -93 -8 -125 -5 -72 -16 -87 -59 -77 -18 4
-41 12 -52 18 -121 68 -414 151 -520 146 -57 -2 -125 -13 -140 -22 -5 -4 -16
-7 -23 -8 -51 -8 -122 -111 -122 -176 0 -35 34 -82 80 -109 43 -26 173 -77
214 -83 21 -4 42 -8 46 -11 8 -5 49 -11 124 -20 100 -11 144 -19 234 -39 137
-31 184 -64 183 -131 0 -21 -9 -110 -11 -110 -1 0 -3 -16 -5 -36 -1 -20 -7
-45 -13 -55 -7 -14 -7 -24 2 -36 8 -11 11 -40 9 -75 -4 -75 -5 -83 -13 -83 -9
0 -9 -1 -14 -210 l-4 -186 124 -124 c68 -69 126 -132 129 -141 3 -10 21 -24
40 -33 19 -9 50 -32 70 -50 19 -18 35 -31 35 -28 0 2 12 -11 27 -29 57 -70
438 -439 454 -439 5 0 9 -4 9 -9 0 -5 6 -16 14 -23 7 -7 65 -62 128 -123 595
-574 612 -590 661 -617 17 -10 33 -21 36 -26 3 -5 53 -37 111 -72 58 -35 108
-68 111 -72 5 -8 229 -74 278 -82 14 -2 26 -5 26 -6 0 -1 13 -3 29 -5 16 -2
36 -7 45 -11 9 -4 23 -8 31 -8 8 -1 14 -8 14 -17 -1 -13 6 -15 38 -9 38 7 122
6 293 -5 113 -7 127 -7 375 1 113 3 248 7 300 7 63 1 99 6 108 14 7 7 21 13
30 14 9 0 24 2 32 4 50 10 89 16 120 19 19 2 49 6 65 10 17 4 59 8 95 11 62 4
88 7 205 21 28 3 64 8 80 9 17 2 57 6 90 10 33 3 78 8 100 10 22 2 54 6 70 9
32 5 118 16 175 22 19 2 55 6 80 9 60 8 105 13 165 20 28 3 70 8 95 11 25 2
61 6 80 8 50 5 140 16 175 21 27 4 63 8 170 20 17 2 50 6 75 10 25 3 68 8 95
10 28 2 66 6 85 9 19 3 60 8 91 11 31 3 67 8 80 10 13 3 51 8 84 11 33 3 74 7
90 9 17 2 53 7 80 10 28 3 64 7 80 9 17 2 55 7 85 10 30 4 69 9 85 11 52 8
108 15 160 21 28 2 57 7 65 9 8 2 44 7 80 11 36 3 79 8 95 10 60 8 131 15 175
19 25 2 74 6 110 9 36 3 97 8 135 11 39 2 81 7 95 10 14 3 54 8 90 10 36 3 76
8 90 11 14 4 32 8 40 9 16 3 66 12 110 20 35 7 98 15 145 20 22 2 58 9 80 14
22 5 58 12 80 15 134 17 158 28 227 98 70 70 96 104 103 134 23 101 23 89 0
414 -7 108 -33 180 -94 270 -32 47 -73 95 -92 108 -51 33 -81 56 -95 70 -7 6
-15 12 -18 12 -3 0 -37 20 -75 45 -38 25 -75 45 -81 45 -14 0 -71 29 -85 44
-6 6 -17 25 -24 43 -14 34 -35 48 -76 52 -25 2 -89 67 -115 118 -14 26 -30 55
-36 63 -9 13 -29 85 -50 181 -8 40 -15 137 -19 279 -5 177 -12 304 -20 354
-11 69 -73 182 -124 226 -76 66 -81 70 -89 70 -15 0 -40 55 -47 104 l-8 48 66
62 c42 39 101 80 166 114 55 29 102 52 103 52 2 -1 16 4 32 10 16 6 35 9 43 6
7 -3 13 0 13 7 0 9 2 9 8 0 6 -9 16 -7 40 7 32 20 61 28 32 10 -13 -8 -12 -10
3 -10 10 0 20 7 23 15 4 8 10 15 16 15 5 0 6 -5 3 -11 -4 -6 2 -5 14 3 12 7
21 16 21 20 0 5 9 17 20 28 11 11 18 20 16 20 -3 0 1 12 9 26 7 14 11 38 9 53
-5 27 -91 114 -100 100 -2 -4 -10 -6 -17 -4 -11 4 -110 16 -132 17 -11 0 -74
-10 -117 -18 -15 -3 -31 -6 -35 -6 -5 0 -19 -5 -33 -10 -14 -5 -32 -11 -41
-13 -36 -7 -123 -48 -224 -106 l-51 -29 -54 28 c-41 20 -69 27 -110 26 -62 -1
-160 -13 -174 -21 -5 -3 -22 -7 -37 -9 -26 -3 -29 0 -35 34 -4 20 -9 46 -11
57 -2 11 -7 46 -9 78 -5 50 -3 57 13 59 19 1 49 3 199 11 50 3 108 13 129 21
53 23 143 30 598 50 60 2 111 7 114 10 4 3 12 1 18 -4 25 -21 42 38 36 122 -2
33 -39 55 -87 53 -25 -1 -47 2 -50 7 -3 4 -11 5 -17 1 -17 -10 -42 -13 -152
-18 -133 -6 -143 -3 -165 48 -21 46 -62 89 -103 108 -65 29 -30 51 88 55 87 3
108 8 145 34 30 21 35 36 24 77 -4 16 -17 23 -52 29 -54 9 -94 9 -137 1 -72
-14 -89 -18 -96 -23 -12 -7 -51 35 -43 47 3 6 8 45 10 87 3 42 6 86 8 97 2 11
0 32 -4 46 -5 15 -3 32 5 42 7 9 11 28 9 42 -1 16 4 29 14 34 35 18 132 -4
132 -30 0 -14 57 -99 85 -125 27 -27 55 -36 130 -41 133 -9 169 0 208 51 21
27 28 44 44 106 7 25 5 262 -2 320 -8 59 -30 92 -67 97 -13 2 -28 4 -34 5 -6
1 -9 10 -6 20 2 10 -1 18 -7 18 -7 0 -10 4 -7 9 4 5 -7 15 -23 22 -16 7 -28
16 -26 19 5 8 -26 10 -45 3 -25 -10 -88 -20 -136 -22 -21 -1 -79 -65 -102
-111 -44 -87 -78 -108 -170 -104 -50 2 -50 2 -82 74 -14 30 -28 58 -33 61 -4
3 6 23 23 44 16 21 31 43 31 49 1 6 2 45 3 86 1 41 7 91 14 110 12 37 11 157
-2 178 -11 19 -94 57 -164 76 -69 19 -78 21 -167 36 -108 19 -123 30 -131 95
-10 83 -15 135 -19 185 -2 30 -7 84 -10 120 -10 103 -16 197 -20 310 -2 58 -6
132 -9 165 -2 37 0 65 7 74 9 12 9 13 0 7 -7 -4 -13 -3 -13 3 0 5 5 13 10 16
6 4 7 12 3 18 -4 6 -8 47 -10 91 -1 46 -7 82 -14 86 -8 6 -7 9 2 13 10 4 9 6
-3 6 -25 1 -23 46 2 64 11 8 17 17 13 20 -3 4 -1 7 5 7 7 0 12 7 12 15 0 8 4
15 9 15 5 0 8 8 7 18 0 9 5 16 12 14 8 -1 11 2 8 7 -4 5 -2 12 2 15 5 3 9 20
10 39 1 28 -8 43 -51 89 -42 45 -62 58 -102 67 -72 18 -95 35 -89 68 3 14 8
31 12 37 3 6 5 34 4 62 -2 41 1 53 15 59 33 14 52 15 65 1 9 -8 21 -10 33 -5
11 4 49 8 83 8 88 1 122 25 117 82 -4 46 -16 64 -57 85 -21 11 -33 12 -42 5
-7 -6 -15 -9 -18 -6 -3 3 -38 7 -78 10 -40 3 -79 10 -87 16 -11 10 -55 133
-58 164 -1 6 5 18 13 27 12 14 18 15 29 6 11 -9 17 -9 24 3 15 23 6 62 -16 66
-48 8 -154 8 -178 0z m-888 -1642 c7 4 8 -20 3 -62 -3 -22 -28 -14 -41 13 -12
27 -6 49 10 38 5 -3 9 -2 8 3 -1 4 0 15 1 23 2 11 3 11 7 -3 2 -9 8 -15 12
-12z"/>
<path d="M3300 1160 c0 -5 9 -10 20 -10 11 0 20 5 20 10 0 6 -9 10 -20 10 -11
0 -20 -4 -20 -10z"/>
<path d="M4895 1041 c-3 -5 -2 -12 3 -15 5 -3 9 1 9 9 0 17 -3 19 -12 6z"/>
</g>
</svg>
